<?xml version="1.0" encoding="utf-8"?>
<!-- Generator: Adobe Illustrator 24.0.1, SVG Export Plug-In . SVG Version: 6.00 Build 0)  -->
<svg version="1.1" id="Layer_1" xmlns="http://www.w3.org/2000/svg" xmlns:xlink="http://www.w3.org/1999/xlink" x="0px" y="0px"
	 viewBox="0 0 188.9 283.4" style="enable-background:new 0 0 188.9 283.4;" xml:space="preserve">
<style type="text/css">
	.st0{fill:#C3263E;}
	.st1{fill:#FFFFFF;}
</style>
<g>
	<g>
		<path class="st0" d="M162.8,52.4L162.8,52.4c-14.5,0-26.2-11.7-26.2-26.2l0,0c0-14.5-11.7-26.2-26.2-26.2H78.6
			c-14.5,0-26.2,11.7-26.2,26.2l0,0c0,14.5-11.7,26.2-26.2,26.2l0,0C11.7,52.4,0,64.1,0,78.6v31.7c0,14.5,11.7,26.2,26.2,26.2l0,0
			c14.5,0,26.2,11.7,26.2,26.2l0,0c0,14.5,11.7,26.2,26.2,26.2h31.7c14.5,0,26.2-11.7,26.2-26.2l0,0c0-14.5,11.7-26.2,26.2-26.2l0,0
			c14.5,0,26.2-11.7,26.2-26.2V78.6C189.1,64,177.3,52.4,162.8,52.4z"/>
		<path class="st1" d="M130.4,82.6L130.4,82.6c-6.2-9.9-12.7-19.7-18.9-29.3c-2.7-4.2-5.4-8.3-8.2-12.5c-2-3.1-5.4-5-9-5s-7,1.9-9,5
			c-2.7,4.2-5.5,8.3-8.2,12.5c-6.3,9.5-12.7,19.4-18.9,29.3c-6.2,10-7.9,22.4-4.6,33.9c3.3,11.5,11.2,21.2,21.8,26.4
			c5.9,2.9,12.2,4.4,18.6,4.4c4.6,0,9.2-0.8,13.8-2.3c10.8-3.6,19.5-11.2,24.5-21.2C138.9,110.9,138.2,95,130.4,82.6z"/>
		<g>
			<path class="st0" d="M0.6,283.4v-58.9h11.1v23.4h1.6l19.2-23.4h14.2L22,253.5l25.5,29.9H32.8l-19.5-23.9h-1.6v23.9H0.6L0.6,283.4
				z"/>
			<path class="st0" d="M45.9,283.4l15.5-58.9h19.4l15.5,58.9H84.8l-3.2-12.9h-21l-3.2,12.9H45.9z M63.2,260.1h15.9l-7.2-28.7h-1.6
				L63.2,260.1z"/>
			<path class="st0" d="M100,283.4v-58.9h24.2c3.7,0,7,0.8,9.8,2.2c2.8,1.5,5.1,3.6,6.6,6.3c1.6,2.7,2.4,5.9,2.4,9.6v1.2
				c0,3.7-0.9,6.8-2.5,9.5c-1.7,2.7-3.9,4.9-6.7,6.3c-2.8,1.5-6,2.2-9.6,2.2h-13.1v21.6L100,283.4L100,283.4L100,283.4z
				 M111.2,251.7h12.1c2.6,0,4.8-0.8,6.4-2.2c1.7-1.5,2.4-3.5,2.4-5.9v-0.9c0-2.5-0.8-4.5-2.4-5.9c-1.7-1.5-3.8-2.1-6.4-2.1h-12.1
				V251.7z"/>
			<path class="st0" d="M145.8,283.4v-58.9H170c3.7,0,7,0.8,9.8,2.2s5.1,3.6,6.6,6.3c1.6,2.7,2.4,5.9,2.4,9.6v1.2
				c0,3.7-0.9,6.8-2.5,9.5c-1.7,2.7-3.9,4.9-6.7,6.3c-2.8,1.5-6,2.2-9.6,2.2h-13.1v21.6L145.8,283.4L145.8,283.4L145.8,283.4z
				 M157,251.7h12.1c2.6,0,4.8-0.8,6.4-2.2c1.7-1.5,2.4-3.5,2.4-5.9v-0.9c0-2.5-0.8-4.5-2.4-5.9c-1.7-1.5-3.8-2.1-6.4-2.1H157V251.7
				z"/>
		</g>
	</g>
</g>
</svg>
