<?xml version="1.0" encoding="utf-8"?>
<!-- Generator: Adobe Illustrator 24.0.1, SVG Export Plug-In . SVG Version: 6.00 Build 0)  -->
<svg version="1.1" id="Layer_1" xmlns="http://www.w3.org/2000/svg" xmlns:xlink="http://www.w3.org/1999/xlink" x="0px" y="0px"
	 viewBox="0 0 418.1 188.9" style="enable-background:new 0 0 418.1 188.9;" xml:space="preserve">
<style type="text/css">
	.st0{fill:#26A9C3;}
	.st1{fill:#FFFFFF;}
</style>
<g>
	<g>
		<path class="st0" d="M162.8,52.4L162.8,52.4c-14.5,0-26.2-11.7-26.2-26.2l0,0c0-14.5-11.7-26.2-26.2-26.2H78.6
			c-14.5,0-26.2,11.7-26.2,26.2l0,0c0,14.5-11.7,26.2-26.2,26.2l0,0C11.7,52.4,0,64.1,0,78.6v31.7c0,14.5,11.7,26.2,26.2,26.2l0,0
			c14.5,0,26.2,11.7,26.2,26.2l0,0c0,14.5,11.7,26.2,26.2,26.2h31.7c14.5,0,26.2-11.7,26.2-26.2l0,0c0-14.5,11.7-26.2,26.2-26.2l0,0
			c14.5,0,26.2-11.7,26.2-26.2V78.6C189.1,64,177.3,52.4,162.8,52.4z"/>
		<path class="st1" d="M130.4,82.6L130.4,82.6c-6.2-9.9-12.7-19.7-18.9-29.3c-2.7-4.2-5.4-8.3-8.2-12.5c-2-3.1-5.4-5-9-5s-7,1.9-9,5
			c-2.7,4.2-5.5,8.3-8.2,12.5c-6.3,9.5-12.7,19.4-18.9,29.3c-6.2,10-7.9,22.4-4.6,33.9c3.3,11.5,11.2,21.2,21.8,26.4
			c5.9,2.9,12.2,4.4,18.6,4.4c4.6,0,9.2-0.8,13.8-2.3c10.8-3.6,19.5-11.2,24.5-21.2C138.9,110.9,138.2,95,130.4,82.6z"/>
		<g>
			<path class="st0" d="M224.5,124.7V64.1h11.4v24.1h1.6l19.7-24.1h14.6L246.5,94l26.2,30.7h-15.1l-20.1-24.6h-1.6v24.6H224.5z"/>
			<path class="st0" d="M271,124.7L287,64.1h19.9l15.9,60.6h-11.8l-3.3-13.3h-21.6l-3.3,13.3H271z M288.8,100.8h16.3l-7.4-29.5h-1.6
				L288.8,100.8z"/>
			<path class="st0" d="M326.6,124.7V64.1h24.9c3.8,0,7.2,0.8,10.1,2.3c2.9,1.5,5.2,3.7,6.8,6.5c1.6,2.8,2.5,6.1,2.5,9.9v1.2
				c0,3.8-0.9,7-2.6,9.8c-1.7,2.8-4,5-6.9,6.5c-2.9,1.5-6.2,2.3-9.9,2.3h-13.5v22.2H326.6z M338.1,92.1h12.4c2.7,0,4.9-0.8,6.6-2.3
				c1.7-1.5,2.5-3.6,2.5-6.1v-0.9c0-2.6-0.8-4.6-2.5-6.1c-1.7-1.5-3.9-2.2-6.6-2.2h-12.4V92.1z"/>
			<path class="st0" d="M373.7,124.7V64.1h24.9c3.8,0,7.2,0.8,10.1,2.3c2.9,1.5,5.2,3.7,6.8,6.5c1.6,2.8,2.5,6.1,2.5,9.9v1.2
				c0,3.8-0.9,7-2.6,9.8c-1.7,2.8-4,5-6.9,6.5c-2.9,1.5-6.2,2.3-9.9,2.3h-13.5v22.2H373.7z M385.2,92.1h12.4c2.7,0,4.9-0.8,6.6-2.3
				c1.7-1.5,2.5-3.6,2.5-6.1v-0.9c0-2.6-0.8-4.6-2.5-6.1c-1.7-1.5-3.9-2.2-6.6-2.2h-12.4V92.1z"/>
		</g>
	</g>
</g>
</svg>
